<svg width="443" height="358" viewBox="0 0 443 358" fill="none" xmlns="http://www.w3.org/2000/svg">
<path opacity="0.1" d="M53.2904 41.7355C57.3276 17.6466 78.1778 0.00012207 102.603 0.00012207H392.285C419.899 0.00012207 442.285 22.3859 442.285 50.0001V308C442.285 335.614 419.899 358 392.285 358H59.3624C28.4471 358 4.94011 330.226 10.0502 299.736L53.2904 41.7355Z" fill="#68C9BA"/>
<path d="M410.014 107.709C435.738 133.047 405.364 157.514 351.903 158.174C245.616 152.092 221.631 70.3481 229.664 52.0205C237.697 33.693 261.615 33.1927 297.054 70.5284C332.493 107.864 377.858 76.0361 410.014 107.709Z" stroke="white" stroke-width="1.5"/>
<ellipse rx="16.5868" ry="8.82028" transform="matrix(0.950062 0.312062 -0.399316 0.916813 305.634 77.4194)" stroke="white" stroke-width="1.5"/>
</svg>
