<svg width="443" height="358" viewBox="0 0 443 358" fill="none" xmlns="http://www.w3.org/2000/svg">
<path opacity="0.1" d="M53.2894 41.7355C57.3267 17.6466 78.1768 0.00012207 102.602 0.00012207H392.284C419.898 0.00012207 442.284 22.3859 442.284 50.0001V308C442.284 335.614 419.898 358 392.284 358H59.3614C28.4461 358 4.93913 330.226 10.0492 299.736L53.2894 41.7355Z" fill="#2D9CDB"/>
<ellipse cx="382.674" cy="306.031" rx="30.9248" ry="18.2737" transform="rotate(20.7184 382.674 306.031)" stroke="white" stroke-width="1.5"/>
<path d="M117.441 275.712C56.9072 287.919 42.2829 223.795 83.6734 149.691C177.67 9.12329 326.122 50.8654 348.761 78.6612C371.401 106.457 353.207 139.798 265.968 154.395C178.729 168.991 193.109 260.454 117.441 275.712Z" stroke="white" stroke-width="1.5"/>
</svg>
